REM DIRINDEX 1\2\6,1\2\7,1\2\8,1\3\9,1\3\10,1\3\11,1\4\12,1\4\13,1\4\14,1\5\15,1\5\16,1\5\17,1\5\18
REM DIRNAME folder01,folder02,folder03,folder04,folder05,folder06,folder07,folder08,folder09,folder10,folder11,folder12,folder13,folder14,folder15,folder16,folder17,folder18
TITLE ""
FILE "" MP3
  TRACK 01 AUDIO
    TITLE "16:cjc019_5058"
    INDEX 01 00:00:00
  TRACK 02 AUDIO
    TITLE "0:"
    INDEX 01 00:00:74
  TRACK 03 AUDIO
    TITLE "18:cjc019_5059"
    INDEX 01 00:01:52
  TRACK 04 AUDIO
    TITLE "0:"
    INDEX 01 00:04:23
  TRACK 05 AUDIO
    TITLE "17:cjc019_5060"
    INDEX 01 00:04:74
  TRACK 06 AUDIO
    TITLE "0:"
    INDEX 01 00:06:10
  TRACK 07 AUDIO
    TITLE "16:cjc019_5061"
    INDEX 01 00:07:66
  TRACK 08 AUDIO
    TITLE "0:"
    INDEX 01 00:09:20
  TRACK 09 AUDIO
    TITLE "18:cjc019_5062"
    INDEX 01 00:10:00
  TRACK 10 AUDIO
    TITLE "0:"
    INDEX 01 00:14:70
  TRACK 11 AUDIO
    TITLE "17:cjc019_5063"
    INDEX 01 00:15:46
  TRACK 12 AUDIO
    TITLE "0:"
    INDEX 01 00:17:02
  TRACK 13 AUDIO
    TITLE "16:cjc019_5064"
    INDEX 01 00:18:56
  TRACK 14 AUDIO
    TITLE "0:"
    INDEX 01 00:20:00
  TRACK 15 AUDIO
    TITLE "18:cjc019_5065"
    INDEX 01 00:20:51
  TRACK 16 AUDIO
    TITLE "0:"
    INDEX 01 00:23:10
  TRACK 17 AUDIO
    TITLE "17:cjc019_5066"
    INDEX 01 00:23:57
  TRACK 18 AUDIO
    TITLE "0:"
    INDEX 01 00:25:07
  TRACK 19 AUDIO
    TITLE "16:cjc019_5067"
    INDEX 01 00:26:66
  TRACK 20 AUDIO
    TITLE "0:"
    INDEX 01 00:28:23
  TRACK 21 AUDIO
    TITLE "18:cjc019_5068"
    INDEX 01 00:29:03
  TRACK 22 AUDIO
    TITLE "0:"
    INDEX 01 00:30:38
  TRACK 23 AUDIO
    TITLE "17:cjc019_5069"
    INDEX 01 00:31:12
  TRACK 24 AUDIO
    TITLE "0:"
    INDEX 01 00:32:43
  TRACK 25 AUDIO
    TITLE "16:cjc019_5070"
    INDEX 01 00:34:30
  TRACK 26 AUDIO
    TITLE "0:"
    INDEX 01 00:35:43
  TRACK 27 AUDIO
    TITLE "18:cjc019_5071"
    INDEX 01 00:36:21
  TRACK 28 AUDIO
    TITLE "0:"
    INDEX 01 00:38:43
  TRACK 29 AUDIO
    TITLE "17:cjc019_5072"
    INDEX 01 00:39:25
  TRACK 30 AUDIO
    TITLE "0:"
    INDEX 01 00:40:44
  TRACK 31 AUDIO
    TITLE "16:cjc019_5073"
    INDEX 01 00:42:33
  TRACK 32 AUDIO
    TITLE "0:"
    INDEX 01 00:43:50
  TRACK 33 AUDIO
    TITLE "18:cjc019_5074"
    INDEX 01 00:44:28
  TRACK 34 AUDIO
    TITLE "0:"
    INDEX 01 00:45:43
  TRACK 35 AUDIO
    TITLE "17:cjc019_5075"
    INDEX 01 00:46:15
  TRACK 36 AUDIO
    TITLE "0:"
    INDEX 01 00:47:34
  TRACK 37 AUDIO
    TITLE "16:cjc019_5076"
    INDEX 01 00:49:10
  TRACK 38 AUDIO
    TITLE "0:"
    INDEX 01 00:50:41
  TRACK 39 AUDIO
    TITLE "18:cjc019_5077"
    INDEX 01 00:51:20
  TRACK 40 AUDIO
    TITLE "0:"
    INDEX 01 00:53:47
  TRACK 41 AUDIO
    TITLE "17:cjc019_5078"
    INDEX 01 00:54:27
  TRACK 42 AUDIO
    TITLE "0:"
    INDEX 01 00:55:55
  TRACK 43 AUDIO
    TITLE "16:cjc019_5079"
    INDEX 01 00:57:39
  TRACK 44 AUDIO
    TITLE "0:"
    INDEX 01 00:58:56
  TRACK 45 AUDIO
    TITLE "18:cjc019_5080"
    INDEX 01 00:59:38
  TRACK 46 AUDIO
    TITLE "0:"
    INDEX 01 01:03:26
  TRACK 47 AUDIO
    TITLE "17:cjc019_5081"
    INDEX 01 01:04:03
  TRACK 48 AUDIO
    TITLE "0:"
    INDEX 01 01:05:28
  TRACK 49 AUDIO
    TITLE "16:cjc019_5082"
    INDEX 01 01:07:12
  TRACK 50 AUDIO
    TITLE "0:"
    INDEX 01 01:08:31
  TRACK 51 AUDIO
    TITLE "18:cjc019_5083"
    INDEX 01 01:09:18
  TRACK 52 AUDIO
    TITLE "0:"
    INDEX 01 01:11:74
  TRACK 53 AUDIO
    TITLE "17:cjc019_5084"
    INDEX 01 01:12:52
  TRACK 54 AUDIO
    TITLE "0:"
    INDEX 01 01:14:04
  TRACK 55 AUDIO
    TITLE "16:cjc019_5085"
    INDEX 01 01:15:60
  TRACK 56 AUDIO
    TITLE "0:"
    INDEX 01 01:16:69
  TRACK 57 AUDIO
    TITLE "18:cjc019_5086"
    INDEX 01 01:17:51
  TRACK 58 AUDIO
    TITLE "0:"
    INDEX 01 01:21:31
  TRACK 59 AUDIO
    TITLE "17:cjc019_5087"
    INDEX 01 01:22:09
  TRACK 60 AUDIO
    TITLE "0:"
    INDEX 01 01:23:20
  TRACK 61 AUDIO
    TITLE "16:cjc019_5088"
    INDEX 01 01:25:06
  TRACK 62 AUDIO
    TITLE "0:"
    INDEX 01 01:26:19
  TRACK 63 AUDIO
    TITLE "18:cjc019_5089"
    INDEX 01 01:27:01
  TRACK 64 AUDIO
    TITLE "0:"
    INDEX 01 01:27:69
  TRACK 65 AUDIO
    TITLE "17:cjc019_5090"
    INDEX 01 01:28:45
  TRACK 66 AUDIO
    TITLE "0:"
    INDEX 01 01:29:62
  TRACK 67 AUDIO
    TITLE "16:cjc019_5091"
    INDEX 01 01:31:49
  TRACK 68 AUDIO
    TITLE "0:"
    INDEX 01 01:32:74
  TRACK 69 AUDIO
    TITLE "18:cjc019_5092"
    INDEX 01 01:33:60
  TRACK 70 AUDIO
    TITLE "0:"
    INDEX 01 01:36:19
  TRACK 71 AUDIO
    TITLE "17:cjc019_5093"
    INDEX 01 01:36:72
  TRACK 72 AUDIO
    TITLE "0:"
    INDEX 01 01:38:16
  TRACK 73 AUDIO
    TITLE "16:cjc019_5094"
    INDEX 01 01:40:03
  TRACK 74 AUDIO
    TITLE "0:"
    INDEX 01 01:41:34
  TRACK 75 AUDIO
    TITLE "18:cjc019_5095"
    INDEX 01 01:42:14
  TRACK 76 AUDIO
    TITLE "0:"
    INDEX 01 01:43:25
  TRACK 77 AUDIO
    TITLE "17:cjc019_5096"
    INDEX 01 01:44:09
  TRACK 78 AUDIO
    TITLE "0:"
    INDEX 01 01:45:38
  TRACK 79 AUDIO
    TITLE "16:cjc019_5097"
    INDEX 01 01:47:19
  TRACK 80 AUDIO
    TITLE "0:"
    INDEX 01 01:48:28
  TRACK 81 AUDIO
    TITLE "18:cjc019_5098"
    INDEX 01 01:49:04
  TRACK 82 AUDIO
    TITLE "0:"
    INDEX 01 01:53:21
  TRACK 83 AUDIO
    TITLE "17:cjc019_5099"
    INDEX 01 01:54:03
  TRACK 84 AUDIO
    TITLE "0:"
    INDEX 01 01:55:13
  TRACK 85 AUDIO
    TITLE "16:cjc019_5100"
    INDEX 01 01:56:67
  TRACK 86 AUDIO
    TITLE "0:"
    INDEX 01 01:58:07
  TRACK 87 AUDIO
    TITLE "18:cjc019_5101"
    INDEX 01 01:58:64
  TRACK 88 AUDIO
    TITLE "0:"
    INDEX 01 02:01:43
  TRACK 89 AUDIO
    TITLE "17:cjc019_5102"
    INDEX 01 02:02:20
  TRACK 90 AUDIO
    TITLE "0:"
    INDEX 01 02:03:41
  TRACK 91 AUDIO
    TITLE "16:cjc019_5103"
    INDEX 01 02:05:23
  TRACK 92 AUDIO
    TITLE "0:"
    INDEX 01 02:06:65
  TRACK 93 AUDIO
    TITLE "18:cjc019_5104"
    INDEX 01 02:07:51
  TRACK 94 AUDIO
    TITLE "0:"
    INDEX 01 02:11:43
  TRACK 95 AUDIO
    TITLE "17:cjc019_5105"
    INDEX 01 02:12:29
  TRACK 96 AUDIO
    TITLE "0:"
    INDEX 01 02:13:73
  TRACK 97 AUDIO
    TITLE "16:cjc019_5106"
    INDEX 01 02:15:52
  TRACK 98 AUDIO
    TITLE "0:"
    INDEX 01 02:16:58
  TRACK 99 AUDIO
    TITLE "18:cjc019_5107"
    INDEX 01 02:17:45
  TRACK 100 AUDIO
    TITLE "0:"
    INDEX 01 02:21:20
  TRACK 101 AUDIO
    TITLE "17:cjc019_5108"
    INDEX 01 02:21:73
  TRACK 102 AUDIO
    TITLE "0:"
    INDEX 01 02:23:13
  TRACK 103 AUDIO
    TITLE "16:cjc019_5109"
    INDEX 01 02:24:71
  TRACK 104 AUDIO
    TITLE "0:"
    INDEX 01 02:26:03
  TRACK 105 AUDIO
    TITLE "18:cjc019_5110"
    INDEX 01 02:26:58
  TRACK 106 AUDIO
    TITLE "0:"
    INDEX 01 02:29:74
  TRACK 107 AUDIO
    TITLE "17:cjc019_5111"
    INDEX 01 02:30:52
  TRACK 108 AUDIO
    TITLE "0:"
    INDEX 01 02:31:65
